# File created by Blade
# Date/Time:  Fri Jan 16 17:53:05 2015
# Frame Rate: 120.000 fps
#------------------------------------------------------
:FULLY-SPECIFIED
:DEGREES
2244
root -9.505068 35.380503 -11.635115 -1.667313 -0.926229 -5.330214
Spine 1.286892 -5.414242 9.255682
Head 11.588309 10.720465 -5.002717
LeftShoulder -21.390088 14.545424 3.674893
LeftArm 31.588525 -62.855072 -39.815473
LeftForeArm 9.229232 -0.000000 3.887247
LeftHand -7.932815 0.000000 -10.061215
LeftHandThumb1 -26.253704 0.000000 33.147579
RightShoulder -5.156416 6.784299 -17.071303
RightArm -1.821885 13.495395 21.441669
RightForeArm -29.952048 -0.000000 14.631153
RightHand -1.590188 -0.000000 13.624907
RightHandThumb1 -24.326973 -0.000000 -32.862282
LeftUpLeg 4.070173 7.809102 11.924966
LeftLeg 3.323863 -0.000000 -0.000000
LeftFoot -17.051161 26.510392 -11.311800
LeftToeBase 22.205592 -0.000000 -0.000000
RightUpLeg 7.470623 -2.629795 8.492010
RightLeg -5.885058 -0.000000 0.000000
RightFoot -3.940118 -28.670079 4.598203
RightToeBase 10.400794 -0.000000 -0.000000
2245
root -9.482852 35.370567 -11.624840 -1.555057 -0.866862 -5.473023
Spine 1.065810 -5.482352 9.469367
Head 11.223027 10.736336 -4.960170
LeftShoulder -21.394441 14.354472 3.692003
LeftArm 31.636724 -62.852634 -39.825648
LeftForeArm 9.527715 -0.000000 3.877424
LeftHand -8.014015 -0.000000 -10.069646
LeftHandThumb1 -26.253704 0.000000 33.147579
RightShoulder -5.215637 7.027536 -17.416514
RightArm -1.851688 13.755268 20.863300
RightForeArm -30.208379 0.000000 14.626254
RightHand -1.631176 -0.000000 13.567421
RightHandThumb1 -24.326973 -0.000000 -32.862282
LeftUpLeg 4.265349 7.613608 12.075526
LeftLeg 2.722059 -0.000000 -0.000000
LeftFoot -16.956330 26.411306 -11.492042
LeftToeBase 22.623809 -0.000000 -0.000000
RightUpLeg 7.333809 -2.715867 8.593045
RightLeg -5.789977 -0.000000 0.000000
RightFoot -4.003174 -28.599819 4.593014
RightToeBase 10.431795 -0.000000 -0.000000
2246
root -9.459728 35.360606 -11.615619 -1.432257 -0.785575 -5.618076
Spine 0.826244 -5.572951 9.679034
Head 10.861413 10.759078 -4.919707
LeftShoulder -21.408044 14.224298 3.724326
LeftArm 31.846459 -62.919820 -40.045542
LeftForeArm 9.919988 -0.000000 3.857655
LeftHand -8.051920 -0.000000 -10.115765
LeftHandThumb1 -26.253704 0.000000 33.147579
RightShoulder -5.261153 7.337048 -17.773788
RightArm -1.938137 13.935599 20.270712
RightForeArm -30.343363 -0.000000 14.681018
RightHand -1.705131 -0.000000 13.594419
RightHandThumb1 -24.326973 -0.000000 -32.862282
LeftUpLeg 4.417184 7.463530 12.208069
LeftLeg 2.184040 -0.000000 -0.000000
LeftFoot -16.883184 26.295919 -11.482185
LeftToeBase 22.756311 -0.000000 -0.000000
RightUpLeg 7.219143 -2.643483 8.705584
RightLeg -5.763524 -0.000000 0.000000
RightFoot -4.099692 -28.679508 4.759780
RightToeBase 10.462653 -0.000000 -0.000000
2247
root -9.433168 35.350836 -11.608261 -1.291290 -0.727897 -5.761156
Spine 0.580432 -5.629951 9.900065
Head 10.499131 10.702581 -4.918092
LeftShoulder -21.432885 14.133202 3.725309
LeftArm 32.146321 -62.997703 -40.352922
LeftForeArm 10.326610 -0.000000 3.840794
LeftHand -8.146989 -0.000000 -10.014417
LeftHandThumb1 -26.253704 0.000000 33.147579
RightShoulder -5.339438 7.585847 -18.149499
RightArm -1.935373 13.954195 19.755543
RightForeArm -30.561878 0.000000 14.684078
RightHand -1.824063 -0.000000 13.458354
RightHandThumb1 -24.326973 -0.000000 -32.862282
LeftUpLeg 4.576001 7.366265 12.320160
LeftLeg 1.611156 -0.000000 -0.000000
LeftFoot -16.830170 26.152936 -11.451905
LeftToeBase 22.856479 -0.000000 -0.000000
RightUpLeg 7.079779 -2.545827 8.809751
RightLeg -5.729092 -0.000000 0.000000
RightFoot -4.150094 -28.751204 4.833060
RightToeBase 10.491330 -0.000000 -0.000000
2248
root -9.409138 35.341713 -11.601820 -1.185060 -0.676013 -5.882711
Spine 0.399295 -5.697275 10.050315
Head 10.097031 10.692930 -4.856685
LeftShoulder -21.444992 13.940426 3.799900
LeftArm 32.175917 -62.929150 -40.395335
LeftForeArm 10.474719 -0.000000 3.796696
LeftHand -8.129091 -0.000000 -9.953441
LeftHandThumb1 -26.253704 0.000000 33.147579
RightShoulder -5.426403 7.799326 -18.464941
RightArm -1.909399 14.075449 19.243052
RightForeArm -30.664119 -0.000000 14.703285
RightHand -1.812764 -0.000000 13.278652
RightHandThumb1 -24.326973 -0.000000 -32.862282
LeftUpLeg 4.724958 7.387616 12.425467
LeftLeg 1.111923 -0.000000 -0.000000
LeftFoot -16.776939 25.980835 -11.493591
LeftToeBase 22.891059 -0.000000 -0.000000
RightUpLeg 6.967636 -2.506028 8.897025
RightLeg -5.688215 -0.000000 0.000000
RightFoot -4.208864 -28.791243 4.889475
RightToeBase 10.505672 -0.000000 -0.000000
2249
root -9.375953 35.333668 -11.595936 -1.053633 -0.599461 -6.022186
Spine 0.185524 -5.772350 10.259358
Head 9.694444 10.639745 -4.849676
LeftShoulder -21.456692 13.801940 3.817730
LeftArm 32.339616 -62.918162 -40.566682
LeftForeArm 10.707163 -0.000000 3.722845
LeftHand -8.133909 -0.000000 -9.761429
LeftHandThumb1 -26.253704 0.000000 33.147579
RightShoulder -5.502918 8.010866 -18.784168
RightArm -1.903255 14.142893 18.666039
RightForeArm -30.915509 0.000000 14.747300
RightHand -1.833073 0.000000 13.384664
RightHandThumb1 -24.326973 -0.000000 -32.862282
LeftUpLeg 4.840810 7.410932 12.516107
LeftLeg 0.581359 -0.000000 -0.000000
LeftFoot -16.773241 25.974325 -11.604851
LeftToeBase 23.032025 -0.000000 -0.000000
RightUpLeg 6.824876 -2.531662 8.979697
RightLeg -5.641731 -0.000000 0.000000
RightFoot -4.269133 -28.774370 5.035213
RightToeBase 10.458989 -0.000000 -0.000000
2250
root -9.345300 35.325030 -11.588164 -0.920899 -0.499771 -6.164143
Spine -0.046455 -5.850353 10.454044
Head 9.318795 10.618238 -4.792009
LeftShoulder -21.470078 13.739140 3.856380
LeftArm 32.603020 -62.915283 -40.859146
LeftForeArm 10.896644 -0.000000 3.687547
LeftHand -8.131006 -0.000000 -9.662883
LeftHandThumb1 -26.253704 0.000000 33.147579
RightShoulder -5.586907 8.188809 -19.118070
RightArm -1.899437 14.261751 18.158836
RightForeArm -30.998154 0.000000 14.756437
RightHand -1.921883 0.000000 13.166576
RightHandThumb1 -24.326973 -0.000000 -32.862282
LeftUpLeg 4.942376 7.327419 12.611779
LeftLeg 0.094709 -0.000000 -0.000000
LeftFoot -16.755665 25.953436 -11.688023
LeftToeBase 23.042490 -0.000000 -0.000000
RightUpLeg 6.682833 -2.632168 9.066617
RightLeg -5.593551 -0.000000 0.000000
RightFoot -4.331585 -28.709955 5.121827
RightToeBase 10.504366 -0.000000 -0.000000
2251
root -9.308492 35.317990 -11.579890 -0.806834 -0.470741 -6.278769
Spine -0.235562 -5.856335 10.633277
Head 8.938503 10.519062 -4.819479
LeftShoulder -21.465644 13.641093 3.856028
LeftArm 32.780585 -62.885594 -41.020443
LeftForeArm 11.058074 0.000000 3.640438
LeftHand -8.182135 -0.000000 -9.505906
LeftHandThumb1 -26.253704 0.000000 33.147579
RightShoulder -5.641933 8.378348 -19.450091
RightArm -1.970756 14.418500 17.630208
RightForeArm -31.185619 -0.000000 14.824203
RightHand -1.956168 -0.000000 13.240619
RightHandThumb1 -24.326973 -0.000000 -32.862282
LeftUpLeg 5.137157 7.450026 12.677229
LeftLeg -0.512387 -0.000000 0.000000
LeftFoot -16.626999 25.857437 -11.672157
LeftToeBase 23.035818 -0.000000 -0.000000
RightUpLeg 6.546383 -2.635604 9.120173
RightLeg -5.515531 -0.000000 0.000000
RightFoot -4.351541 -28.677469 5.122726
RightToeBase 10.501994 -0.000000 -0.000000
2252
root -9.271275 35.310087 -11.575629 -0.671896 -0.424971 -6.398495
Spine -0.434967 -5.878734 10.812025
Head 8.517921 10.456612 -4.835235
LeftShoulder -21.488586 13.566112 3.845986
LeftArm 32.959951 -62.791767 -41.135970
LeftForeArm 11.101318 -0.000000 3.551992
LeftHand -8.111323 -0.000000 -9.445373
LeftHandThumb1 -26.253704 0.000000 33.147579
RightShoulder -5.710639 8.549899 -19.760973
RightArm -1.981033 14.687626 17.113914
RightForeArm -31.278246 -0.000000 14.809778
RightHand -1.881295 -0.000000 13.013677
RightHandThumb1 -24.326973 -0.000000 -32.862282
LeftUpLeg 5.264088 7.629971 12.728449
LeftLeg -1.068563 -0.000000 0.000000
LeftFoot -16.591150 25.759384 -11.740761
LeftToeBase 23.125082 -0.000000 -0.000000
RightUpLeg 6.384009 -2.648742 9.182723
RightLeg -5.445687 -0.000000 0.000000
RightFoot -4.384279 -28.675160 5.161521
RightToeBase 10.466012 -0.000000 -0.000000
2253
root -9.235053 35.302726 -11.568499 -0.581085 -0.399630 -6.531161
Spine -0.574180 -5.876711 10.993222
Head 8.103106 10.426269 -4.831479
LeftShoulder -21.474686 13.452700 3.857510
LeftArm 33.089010 -62.724785 -41.223184
LeftForeArm 11.300601 0.000000 3.496575
LeftHand -8.153839 0.000000 -9.377511
LeftHandThumb1 -26.253704 0.000000 33.147579
RightShoulder -5.779679 8.810913 -20.090957
RightArm -2.067148 14.963484 16.624055
RightForeArm -31.577971 -0.000000 14.856326
RightHand -1.934851 -0.000000 13.095522
RightHandThumb1 -24.326973 -0.000000 -32.862282
LeftUpLeg 5.435070 7.798359 12.800101
LeftLeg -1.592945 -0.000000 0.000000
LeftFoot -16.518486 25.690149 -11.655508
LeftToeBase 23.251028 -0.000000 -0.000000
RightUpLeg 6.277347 -2.649576 9.261004
RightLeg -5.391986 -0.000000 0.000000
RightFoot -4.421988 -28.678380 5.212324
RightToeBase 10.506809 -0.000000 -0.000000
2254
root -9.194296 35.294670 -11.566524 -0.453272 -0.395413 -6.679342
Spine -0.730708 -5.865946 11.228576
Head 7.632086 10.398698 -4.909474
LeftShoulder -21.518294 13.314183 3.846954
LeftArm 33.292205 -62.641020 -41.381415
LeftForeArm 11.500966 -0.000000 3.432314
LeftHand -8.098134 -0.000000 -9.328627
LeftHandThumb1 -26.253704 0.000000 33.147579
RightShoulder -5.801991 9.067445 -20.475932
RightArm -2.208900 15.196931 16.163333
RightForeArm -31.649178 0.000000 14.936003
RightHand -2.065935 -0.000000 13.038087
RightHandThumb1 -24.326973 -0.000000 -32.862282
LeftUpLeg 5.563187 8.046342 12.877241
LeftLeg -2.107127 -0.000000 0.000000
LeftFoot -16.474275 25.616323 -11.582655
LeftToeBase 23.444331 -0.000000 -0.000000
RightUpLeg 6.111943 -2.646010 9.344846
RightLeg -5.308685 -0.000000 0.000000
RightFoot -4.433103 -28.669975 5.234479
RightToeBase 10.483578 -0.000000 -0.000000
2255
root -9.152949 35.287475 -11.559427 -0.362534 -0.384706 -6.809510
Spine -0.857887 -5.891763 11.428667
Head 7.180609 10.372029 -4.989265
LeftShoulder -21.579362 13.189386 3.797671
LeftArm 33.444764 -62.539105 -41.399866
LeftForeArm 11.600989 -0.000000 3.348091
LeftHand -8.131974 -0.000000 -9.237490
LeftHandThumb1 -26.253704 0.000000 33.147579
RightShoulder -5.826332 9.311361 -20.795213
RightArm -2.253794 15.404220 15.677686
RightForeArm -31.804524 -0.000000 14.894952
RightHand -2.166136 -0.000000 13.102703
RightHandThumb1 -24.326973 -0.000000 -32.862282
LeftUpLeg 5.730007 8.301405 12.933988
LeftLeg -2.620716 -0.000000 0.000000
LeftFoot -16.408903 25.540344 -11.532939
LeftToeBase 23.519479 -0.000000 -0.000000
RightUpLeg 5.997585 -2.730582 9.405939
RightLeg -5.239117 -0.000000 0.000000
RightFoot -4.461902 -28.591598 5.257314
RightToeBase 10.484370 -0.000000 -0.000000
